<?xml version="1.0" encoding="utf-8"?>
<svg viewBox="68.639 235.627 397.554 137.278" xmlns="http://www.w3.org/2000/svg">
  <defs/>
  <path d="M 94.97 268.1 L 94.97 311.3 Q 94.97 318.4 98.67 322.15 Q 102.37 325.9 109.07 325.9 Q 115.87 325.9 119.57 322.15 Q 123.27 318.4 123.27 311.3 L 123.27 268.1 L 137.37 268.1 L 137.37 311.2 Q 137.37 320.1 133.52 326.25 Q 129.67 332.4 123.22 335.5 Q 116.77 338.6 108.87 338.6 Q 101.07 338.6 94.72 335.5 Q 88.37 332.4 84.67 326.25 Q 80.97 320.1 80.97 311.2 L 80.97 268.1 Z M 177.97 281.7 Q 187.87 281.7 193.97 287.95 Q 200.07 294.2 200.07 305.4 L 200.07 337.9 L 186.07 337.9 L 186.07 307.3 Q 186.07 300.7 182.77 297.15 Q 179.47 293.6 173.77 293.6 Q 167.97 293.6 164.62 297.15 Q 161.27 300.7 161.27 307.3 L 161.27 337.9 L 147.27 337.9 L 147.27 282.5 L 161.27 282.5 L 161.27 289.4 Q 164.07 285.8 168.42 283.75 Q 172.77 281.7 177.97 281.7 Z M 220.47 275.9 Q 216.77 275.9 214.32 273.55 Q 211.87 271.2 211.87 267.7 Q 211.87 264.2 214.32 261.85 Q 216.77 259.5 220.47 259.5 Q 224.17 259.5 226.62 261.85 Q 229.07 264.2 229.07 267.7 Q 229.07 271.2 226.62 273.55 Q 224.17 275.9 220.47 275.9 Z M 227.37 282.5 L 227.37 337.9 L 213.37 337.9 L 213.37 282.5 Z M 235.39 302.9 Q 235.39 292.6 240.04 284.45 Q 244.69 276.3 252.74 271.75 Q 260.79 267.2 270.79 267.2 Q 282.49 267.2 291.29 273.2 Q 300.09 279.2 303.59 289.8 L 287.49 289.8 Q 285.09 284.8 280.74 282.3 Q 276.39 279.8 270.69 279.8 Q 264.59 279.8 259.84 282.65 Q 255.09 285.5 252.44 290.7 Q 249.79 295.9 249.79 302.9 Q 249.79 309.8 252.44 315.05 Q 255.09 320.3 259.84 323.15 Q 264.59 326 270.69 326 Q 276.39 326 280.74 323.45 Q 285.09 320.9 287.49 315.9 L 303.59 315.9 Q 300.09 326.6 291.34 332.55 Q 282.59 338.5 270.79 338.5 Q 260.79 338.5 252.74 333.95 Q 244.69 329.4 240.04 321.3 Q 235.39 313.2 235.39 302.9 Z M 311.45 310 Q 311.45 301.6 314.8 295.1 Q 318.15 288.6 323.9 285.1 Q 329.65 281.6 336.75 281.6 Q 342.95 281.6 347.6 284.1 Q 352.25 286.6 355.05 290.4 L 355.05 282.5 L 369.15 282.5 L 369.15 337.9 L 355.05 337.9 L 355.05 329.8 Q 352.35 333.7 347.6 336.25 Q 342.85 338.8 336.65 338.8 Q 329.65 338.8 323.9 335.2 Q 318.15 331.6 314.8 325.05 Q 311.45 318.5 311.45 310 Z M 355.05 310.2 Q 355.05 305.1 353.05 301.45 Q 351.05 297.8 347.65 295.85 Q 344.25 293.9 340.35 293.9 Q 336.45 293.9 333.15 295.8 Q 329.85 297.7 327.8 301.35 Q 325.75 305 325.75 310 Q 325.75 315 327.8 318.75 Q 329.85 322.5 333.2 324.5 Q 336.55 326.5 340.35 326.5 Q 344.25 326.5 347.65 324.55 Q 351.05 322.6 353.05 318.95 Q 355.05 315.3 355.05 310.2 Z M 395.15 291.1 Q 397.85 286.7 402.2 284.2 Q 406.55 281.7 412.15 281.7 L 412.15 296.4 L 408.45 296.4 Q 401.85 296.4 398.5 299.5 Q 395.15 302.6 395.15 310.3 L 395.15 337.9 L 381.15 337.9 L 381.15 282.5 L 395.15 282.5 L 395.15 291.1 Z M 433.04 294 L 433.04 320.8 Q 433.04 323.6 434.39 324.85 Q 435.74 326.1 438.94 326.1 L 445.44 326.1 L 445.44 337.9 L 436.64 337.9 Q 418.94 337.9 418.94 320.7 L 418.94 294 L 412.34 294 L 412.34 282.5 L 418.94 282.5 L 418.94 268.8 L 433.04 268.8 L 433.04 282.5 L 445.44 282.5 L 445.44 294 Z"/>
</svg>